# xmcd
#
# Track frame offsets: 
#        150
#        17279
#        32918
#        54415
#        79532
#        97888
#        135156
#        158083
#        176688
#        202105
#        223544
#        241513
#        255813
#        280177
#        303677
#
# Disc length: 4286 seconds
#
# Revision: 0
# Processed by: cddbd v1.5.2PL0 Copyright (c) Steve Scherf et al.
# Submitted via: ExactAudioCopy v0.95b4
#
DISCID=b210bc0f
DTITLE=Dan Seals - Ogden, UT - June 30
DYEAR=2001
DGENRE=Country
TTITLE0=I'd Really Love To See You Tonight
TTITLE1=God Must Be A Cowboy
TTITLE2=Big Wheels In The Moonlight
TTITLE3=Still Reelin'
TTITLE4=Headin' West
TTITLE5=My Baby's Got Good Timin'
TTITLE6=My Old Yellow Car
TTITLE7=Love Is The Answer
TTITLE8=Good Times
TTITLE9=Instrumental
TTITLE10=We Are One
TTITLE11=Three Times Loser
TTITLE12=Everything That Glitters (Is Not Gold)
TTITLE13=Bop
TTITLE14=One Friend
EXTD=
EXTT0=
EXTT1=
EXTT2=
EXTT3=
EXTT4=
EXTT5=
EXTT6=
EXTT7=
EXTT8=
EXTT9=
EXTT10=
EXTT11=
EXTT12=
EXTT13=
EXTT14=
PLAYORDER=
